<svg width="3840px" height="30px" viewBox="0 0 3840 30" version="1.1" xmlns="http://www.w3.org/2000/svg" xmlns:xlink="http://www.w3.org/1999/xlink">
    <!-- Generator: Sketch 45.2 (43514) - http://www.bohemiancoding.com/sketch -->
    <title>wave-before</title>
    <desc>Created with Sketch.</desc>
    <defs></defs>
    <g id="Page-1" stroke="none" stroke-width="1" fill="none" fill-rule="evenodd">
        <g id="wave-before" fill-rule="nonzero" fill="#0297FF">
            <path d="M1920,12.1777778 C2246,39.5777778 2560,12.1777778 2560,12.1777778 L2560,29.8777778 L1280,29.8777778 L1280,12.1777778 C1280,12.1777778 1594,-15.2222222 1920,12.1777778 Z M3200,12.1777778 C3526,39.5777778 3840,12.1777778 3840,12.1777778 L3840,29.8777778 L2560,29.8777778 L2560,12.1777778 C2560,12.1777778 2874,-15.2222222 3200,12.1777778 Z M640,12.1777778 C966,39.5777778 1280,12.1777778 1280,12.1777778 L1280,29.8777778 L0,29.8777778 L0,12.1777778 C0,12.1777778 314,-15.2222222 640,12.1777778 Z" id="Combined-Shape"></path>
        </g>
    </g>
</svg>